<mxfile host="app.diagrams.net" modified="2020-09-09T11:55:22.895Z" agent="5.0 (Windows NT 6.1; Win64; x64) AppleWebKit/537.36 (KHTML, like Gecko) Chrome/84.0.4147.125 Safari/537.36" etag="9MIZlMP9vKFqvLLR_lmm" version="13.1.3" type="github">
  <diagram name="Page-1" id="9f46799a-70d6-7492-0946-bef42562c5a5">
    <mxGraphModel dx="1422" dy="1645" grid="1" gridSize="10" guides="1" tooltips="1" connect="1" arrows="1" fold="1" page="1" pageScale="1" pageWidth="1100" pageHeight="850" background="#ffffff" math="0" shadow="0">
      <root>
        <mxCell id="0" />
        <mxCell id="1" parent="0" />
        <object label="&lt;b&gt;认证中心&lt;/b&gt;" placeholders="1" name="Software System Name" id="ozthSqmPlwRFiOnR1lLT-12">
          <mxCell style="rounded=0;whiteSpace=wrap;html=1;strokeColor=#828282;fillColor=none;fontColor=#000000;align=left;labelPosition=center;verticalLabelPosition=middle;verticalAlign=bottom;dashed=1;strokeWidth=1;perimeterSpacing=0;spacing=2;spacingTop=0;fontSize=10;dashPattern=8 8;" parent="1" vertex="1">
            <mxGeometry x="10" y="-140" width="950" height="420" as="geometry" />
          </mxCell>
        </object>
        <object label="&lt;b&gt;应用系统&lt;/b&gt;" placeholders="1" name="Software System Name" id="ozthSqmPlwRFiOnR1lLT-11">
          <mxCell style="rounded=0;whiteSpace=wrap;html=1;strokeColor=#828282;fillColor=none;fontColor=#000000;align=left;labelPosition=center;verticalLabelPosition=middle;verticalAlign=bottom;dashed=1;strokeWidth=1;perimeterSpacing=0;spacing=2;spacingTop=0;fontSize=10;dashPattern=8 8;" parent="1" vertex="1">
            <mxGeometry x="10" y="-510" width="950" height="240" as="geometry" />
          </mxCell>
        </object>
        <object label="" placeholders="1" instruction="edit data of the lower shape within the group" id="ozthSqmPlwRFiOnR1lLT-1">
          <mxCell style="group;resizable=0;" parent="1" vertex="1" connectable="0">
            <mxGeometry x="380" y="-790" width="160" height="170" as="geometry" />
          </mxCell>
        </object>
        <object label="&lt;div style=&quot;color: rgb(255 , 255 , 255) ; white-space: normal&quot;&gt;&lt;span style=&quot;font-size: 14px&quot;&gt;&lt;b&gt;用户&lt;/b&gt;&lt;/span&gt;&lt;/div&gt;" name="Actor Name" description="Description" placeholders="1" id="ozthSqmPlwRFiOnR1lLT-2">
          <mxCell style="rounded=1;whiteSpace=wrap;html=1;strokeColor=#00315C;fillColor=#004179;fontColor=#000000;arcSize=31;" parent="ozthSqmPlwRFiOnR1lLT-1" vertex="1">
            <mxGeometry y="70" width="160" height="100" as="geometry" />
          </mxCell>
        </object>
        <mxCell id="ozthSqmPlwRFiOnR1lLT-3" value="" style="ellipse;whiteSpace=wrap;html=1;aspect=fixed;strokeColor=#00315C;fillColor=#004179;fontColor=#000000;" parent="ozthSqmPlwRFiOnR1lLT-1" vertex="1">
          <mxGeometry x="40" width="80" height="80" as="geometry" />
        </mxCell>
        <mxCell id="ozthSqmPlwRFiOnR1lLT-39" style="edgeStyle=none;rounded=0;orthogonalLoop=1;jettySize=auto;html=1;exitX=0.5;exitY=1;exitDx=0;exitDy=0;entryX=0.5;entryY=0;entryDx=0;entryDy=0;dashed=1;" parent="1" source="ozthSqmPlwRFiOnR1lLT-6" target="ozthSqmPlwRFiOnR1lLT-14" edge="1">
          <mxGeometry relative="1" as="geometry" />
        </mxCell>
        <object label="&lt;span style=&quot;font-size: 14px&quot;&gt;&lt;b&gt;手机APP&lt;/b&gt;&lt;/span&gt;" placeholders="1" name="External System Name" description="Description of Software System" id="ozthSqmPlwRFiOnR1lLT-6">
          <mxCell style="rounded=0;whiteSpace=wrap;html=1;fillColor=#999999;fontColor=#FFFFFF;strokeColor=#828282;resizable=0;" parent="1" vertex="1">
            <mxGeometry x="370" y="-450" width="180" height="120" as="geometry" />
          </mxCell>
        </object>
        <mxCell id="ozthSqmPlwRFiOnR1lLT-40" style="edgeStyle=none;rounded=0;orthogonalLoop=1;jettySize=auto;html=1;exitX=0.5;exitY=1;exitDx=0;exitDy=0;dashed=1;entryX=0.75;entryY=0;entryDx=0;entryDy=0;" parent="1" source="ozthSqmPlwRFiOnR1lLT-9" target="ozthSqmPlwRFiOnR1lLT-14" edge="1">
          <mxGeometry relative="1" as="geometry">
            <mxPoint x="450" y="-80" as="targetPoint" />
          </mxGeometry>
        </mxCell>
        <object label="&lt;div&gt;&lt;span style=&quot;font-size: 14px&quot;&gt;&lt;b&gt;CS客户端&lt;/b&gt;&lt;/span&gt;&lt;/div&gt;" placeholders="1" name="External System Name" description="Description of Software System" id="ozthSqmPlwRFiOnR1lLT-9">
          <mxCell style="rounded=0;whiteSpace=wrap;html=1;fillColor=#999999;fontColor=#FFFFFF;strokeColor=#828282;resizable=0;" parent="1" vertex="1">
            <mxGeometry x="650" y="-450" width="180" height="120" as="geometry" />
          </mxCell>
        </object>
        <mxCell id="ozthSqmPlwRFiOnR1lLT-38" style="rounded=0;orthogonalLoop=1;jettySize=auto;html=1;exitX=0.5;exitY=1;exitDx=0;exitDy=0;dashed=1;entryX=0.25;entryY=0;entryDx=0;entryDy=0;" parent="1" source="ozthSqmPlwRFiOnR1lLT-7" target="ozthSqmPlwRFiOnR1lLT-14" edge="1">
          <mxGeometry relative="1" as="geometry" />
        </mxCell>
        <object label="&lt;div&gt;&lt;span style=&quot;font-size: 14px&quot;&gt;&lt;b&gt;WEB业务系统&lt;/b&gt;&lt;/span&gt;&lt;/div&gt;" placeholders="1" name="External System Name" description="Description of Software System" id="ozthSqmPlwRFiOnR1lLT-7">
          <mxCell style="rounded=0;whiteSpace=wrap;html=1;fillColor=#999999;fontColor=#FFFFFF;strokeColor=#828282;resizable=0;" parent="1" vertex="1">
            <mxGeometry x="90" y="-450" width="180" height="120" as="geometry" />
          </mxCell>
        </object>
        <mxCell id="ozthSqmPlwRFiOnR1lLT-41" style="edgeStyle=none;rounded=0;orthogonalLoop=1;jettySize=auto;html=1;dashed=1;" parent="1" source="ozthSqmPlwRFiOnR1lLT-14" target="ozthSqmPlwRFiOnR1lLT-24" edge="1">
          <mxGeometry relative="1" as="geometry" />
        </mxCell>
        <mxCell id="ozthSqmPlwRFiOnR1lLT-48" value="发送验证码" style="edgeLabel;html=1;align=center;verticalAlign=middle;resizable=0;points=[];" parent="ozthSqmPlwRFiOnR1lLT-41" vertex="1" connectable="0">
          <mxGeometry x="-0.3167" relative="1" as="geometry">
            <mxPoint as="offset" />
          </mxGeometry>
        </mxCell>
        <mxCell id="ozthSqmPlwRFiOnR1lLT-42" style="edgeStyle=none;rounded=0;orthogonalLoop=1;jettySize=auto;html=1;exitX=1;exitY=0.5;exitDx=0;exitDy=0;dashed=1;comic=0;" parent="1" source="ozthSqmPlwRFiOnR1lLT-14" target="ozthSqmPlwRFiOnR1lLT-21" edge="1">
          <mxGeometry relative="1" as="geometry" />
        </mxCell>
        <mxCell id="ozthSqmPlwRFiOnR1lLT-43" value="账号查询" style="edgeLabel;html=1;align=center;verticalAlign=middle;resizable=0;points=[];" parent="ozthSqmPlwRFiOnR1lLT-42" vertex="1" connectable="0">
          <mxGeometry x="-0.1765" y="-3" relative="1" as="geometry">
            <mxPoint as="offset" />
          </mxGeometry>
        </mxCell>
        <mxCell id="ozthSqmPlwRFiOnR1lLT-44" style="edgeStyle=none;rounded=0;orthogonalLoop=1;jettySize=auto;html=1;exitX=0.5;exitY=1;exitDx=0;exitDy=0;dashed=1;endArrow=classic;endFill=1;" parent="1" source="ozthSqmPlwRFiOnR1lLT-14" target="ozthSqmPlwRFiOnR1lLT-31" edge="1">
          <mxGeometry relative="1" as="geometry">
            <Array as="points" />
          </mxGeometry>
        </mxCell>
        <mxCell id="ozthSqmPlwRFiOnR1lLT-49" value="校验" style="edgeLabel;html=1;align=center;verticalAlign=middle;resizable=0;points=[];" parent="ozthSqmPlwRFiOnR1lLT-44" vertex="1" connectable="0">
          <mxGeometry x="0.1429" y="-1" relative="1" as="geometry">
            <mxPoint as="offset" />
          </mxGeometry>
        </mxCell>
        <mxCell id="ozthSqmPlwRFiOnR1lLT-46" style="edgeStyle=none;rounded=0;orthogonalLoop=1;jettySize=auto;html=1;exitX=0;exitY=1;exitDx=0;exitDy=0;dashed=1;" parent="1" source="ozthSqmPlwRFiOnR1lLT-14" target="ozthSqmPlwRFiOnR1lLT-25" edge="1">
          <mxGeometry relative="1" as="geometry">
            <Array as="points">
              <mxPoint x="300" y="80" />
            </Array>
          </mxGeometry>
        </mxCell>
        <mxCell id="ozthSqmPlwRFiOnR1lLT-47" value="发送验证码" style="edgeLabel;html=1;align=center;verticalAlign=middle;resizable=0;points=[];" parent="ozthSqmPlwRFiOnR1lLT-46" vertex="1" connectable="0">
          <mxGeometry x="0.0151" y="-19" relative="1" as="geometry">
            <mxPoint x="25" y="4" as="offset" />
          </mxGeometry>
        </mxCell>
        <mxCell id="pjsVTI8Hzno7POjZ78qc-6" style="rounded=0;comic=0;orthogonalLoop=1;jettySize=auto;html=1;exitX=1;exitY=1;exitDx=0;exitDy=0;entryX=0;entryY=0;entryDx=0;entryDy=0;dashed=1;endArrow=classic;endFill=1;" edge="1" parent="1" source="ozthSqmPlwRFiOnR1lLT-14" target="pjsVTI8Hzno7POjZ78qc-5">
          <mxGeometry relative="1" as="geometry" />
        </mxCell>
        <mxCell id="pjsVTI8Hzno7POjZ78qc-7" value="校验" style="edgeLabel;html=1;align=center;verticalAlign=middle;resizable=0;points=[];" vertex="1" connectable="0" parent="pjsVTI8Hzno7POjZ78qc-6">
          <mxGeometry x="-0.1355" y="1" relative="1" as="geometry">
            <mxPoint x="1" as="offset" />
          </mxGeometry>
        </mxCell>
        <object label="&lt;div&gt;&lt;span style=&quot;font-size: 14px&quot;&gt;&lt;b&gt;认证中心&lt;/b&gt;&lt;/span&gt;&lt;/div&gt;" placeholders="1" name="Software System Name" description="Description" id="ozthSqmPlwRFiOnR1lLT-14">
          <mxCell style="rounded=0;whiteSpace=wrap;html=1;fillColor=#0067BA;fontColor=#FFFFFF;strokeColor=#005DA8;resizable=0;" parent="1" vertex="1">
            <mxGeometry x="370" y="-80" width="180" height="120" as="geometry" />
          </mxCell>
        </object>
        <object label="&lt;span style=&quot;font-size: 14px&quot;&gt;&lt;b&gt;用户中心系统&lt;/b&gt;&lt;/span&gt;" placeholders="1" name="External System Name" description="Description of Software System" id="ozthSqmPlwRFiOnR1lLT-21">
          <mxCell style="rounded=0;whiteSpace=wrap;html=1;fillColor=#999999;fontColor=#FFFFFF;strokeColor=#828282;resizable=0;" parent="1" vertex="1">
            <mxGeometry x="710" y="-80" width="180" height="120" as="geometry" />
          </mxCell>
        </object>
        <object label="&lt;span style=&quot;font-size: 14px&quot;&gt;&lt;b&gt;邮件系统&lt;/b&gt;&lt;/span&gt;" placeholders="1" name="External System Name" description="Description of Software System" id="ozthSqmPlwRFiOnR1lLT-24">
          <mxCell style="rounded=0;whiteSpace=wrap;html=1;fillColor=#999999;fontColor=#FFFFFF;strokeColor=#828282;resizable=0;" parent="1" vertex="1">
            <mxGeometry x="60" y="-80" width="180" height="120" as="geometry" />
          </mxCell>
        </object>
        <object label="&lt;span style=&quot;font-size: 14px&quot;&gt;&lt;b&gt;短信网关&lt;/b&gt;&lt;/span&gt;" placeholders="1" name="External System Name" description="Description of Software System" id="ozthSqmPlwRFiOnR1lLT-25">
          <mxCell style="rounded=0;whiteSpace=wrap;html=1;fillColor=#999999;fontColor=#FFFFFF;strokeColor=#828282;resizable=0;" parent="1" vertex="1">
            <mxGeometry x="60" y="110" width="180" height="120" as="geometry" />
          </mxCell>
        </object>
        <object label="&lt;span style=&quot;font-size: 14px&quot;&gt;&lt;b&gt;生物认证系统&lt;/b&gt;&lt;/span&gt;" placeholders="1" name="External System Name" description="Description of Software System" id="ozthSqmPlwRFiOnR1lLT-31">
          <mxCell style="rounded=0;whiteSpace=wrap;html=1;fillColor=#999999;fontColor=#FFFFFF;strokeColor=#828282;resizable=0;" parent="1" vertex="1">
            <mxGeometry x="370" y="110" width="180" height="120" as="geometry" />
          </mxCell>
        </object>
        <mxCell id="ozthSqmPlwRFiOnR1lLT-50" style="edgeStyle=none;rounded=0;orthogonalLoop=1;jettySize=auto;html=1;exitX=0.5;exitY=1;exitDx=0;exitDy=0;entryX=0.5;entryY=0;entryDx=0;entryDy=0;dashed=1;endArrow=classic;endFill=1;" parent="1" source="ozthSqmPlwRFiOnR1lLT-2" target="ozthSqmPlwRFiOnR1lLT-9" edge="1">
          <mxGeometry relative="1" as="geometry" />
        </mxCell>
        <mxCell id="ozthSqmPlwRFiOnR1lLT-51" style="edgeStyle=none;rounded=0;orthogonalLoop=1;jettySize=auto;html=1;exitX=0.5;exitY=1;exitDx=0;exitDy=0;entryX=0.5;entryY=0;entryDx=0;entryDy=0;dashed=1;endArrow=classic;endFill=1;" parent="1" source="ozthSqmPlwRFiOnR1lLT-2" target="ozthSqmPlwRFiOnR1lLT-6" edge="1">
          <mxGeometry relative="1" as="geometry" />
        </mxCell>
        <mxCell id="ozthSqmPlwRFiOnR1lLT-52" style="edgeStyle=none;rounded=0;orthogonalLoop=1;jettySize=auto;html=1;exitX=0.5;exitY=1;exitDx=0;exitDy=0;entryX=0.5;entryY=0;entryDx=0;entryDy=0;dashed=1;endArrow=classic;endFill=1;" parent="1" source="ozthSqmPlwRFiOnR1lLT-2" target="ozthSqmPlwRFiOnR1lLT-7" edge="1">
          <mxGeometry relative="1" as="geometry" />
        </mxCell>
        <object label="&lt;span style=&quot;font-size: 14px&quot;&gt;&lt;b&gt;证书认证系统&lt;/b&gt;&lt;/span&gt;" placeholders="1" name="External System Name" description="Description of Software System" id="pjsVTI8Hzno7POjZ78qc-5">
          <mxCell style="rounded=0;whiteSpace=wrap;html=1;fillColor=#999999;fontColor=#FFFFFF;strokeColor=#828282;resizable=0;" vertex="1" parent="1">
            <mxGeometry x="710" y="110" width="180" height="120" as="geometry" />
          </mxCell>
        </object>
      </root>
    </mxGraphModel>
  </diagram>
</mxfile>
